<?xml version="1.0" standalone="no"?>
<!DOCTYPE svg PUBLIC "-//W3C//DTD SVG 20010904//EN"
 "http://www.w3.org/TR/2001/REC-SVG-20010904/DTD/svg10.dtd">
<svg version="1.0" xmlns="http://www.w3.org/2000/svg"
 width="260.000000pt" height="260.000000pt" viewBox="0 0 260.000000 260.000000"
 preserveAspectRatio="xMidYMid meet">
<metadata>
Created by potrace 1.14, written by Peter Selinger 2001-2017
</metadata>
<g transform="translate(0.000000,260.000000) scale(0.100000,-0.100000)"
fill="#000000" stroke="none">
<path d="M1101 2584 c-273 -43 -545 -185 -735 -385 -336 -353 -449 -842 -300
-1299 91 -280 274 -519 523 -685 326 -217 735 -272 1111 -149 280 91 519 274
685 523 217 326 272 735 149 1111 -91 280 -274 519 -523 685 -265 176 -592
248 -910 199z m-147 -672 c149 -67 241 -217 265 -432 10 -85 41 -479 41 -522
0 -25 35 -41 59 -29 16 9 20 27 26 108 16 250 37 474 50 536 30 146 123 276
239 332 113 55 286 45 431 -25 86 -41 91 -46 77 -63 -11 -12 -23 -9 -86 23
-85 42 -160 60 -257 60 -162 0 -289 -102 -348 -277 -20 -60 -44 -255 -56 -453
-3 -58 -8 -131 -11 -162 l-6 -58 32 0 c45 0 70 16 70 45 0 14 -4 25 -10 25 -5
0 -10 9 -10 20 0 11 5 20 12 20 22 0 48 -33 48 -62 0 -52 28 -97 123 -197 99
-103 127 -153 142 -254 6 -40 5 -47 -9 -47 -9 0 -18 6 -20 13 -3 6 -14 45 -26
86 -20 69 -27 80 -115 172 -52 53 -101 111 -110 128 -13 26 -19 30 -35 21 -10
-5 -39 -10 -64 -10 -25 0 -47 -4 -50 -8 -3 -5 0 -39 6 -76 11 -64 13 -68 60
-103 49 -35 50 -36 124 -30 68 5 74 4 74 -13 0 -27 -92 -53 -192 -55 -60 -1
-82 -5 -98 -20 -21 -19 -22 -19 -57 0 -25 14 -57 20 -107 21 -94 1 -186 28
-186 54 0 17 6 18 74 13 73 -6 75 -5 123 30 46 34 49 39 60 103 7 37 10 71 7
76 -3 4 -25 8 -50 8 -25 0 -54 5 -64 10 -16 9 -22 5 -36 -22 -9 -18 -59 -76
-109 -128 -96 -99 -94 -96 -135 -240 -12 -44 -35 -31 -32 18 5 88 38 148 139
253 94 99 123 145 123 195 0 30 25 64 47 64 7 0 13 -9 13 -20 0 -11 -4 -20
-10 -20 -16 0 -12 -37 6 -54 8 -9 31 -16 50 -16 l35 0 -5 68 c-4 37 -11 135
-16 217 -20 291 -33 362 -82 458 -66 131 -162 197 -299 205 -101 6 -180 -11
-275 -58 -70 -36 -75 -37 -84 -20 -9 16 -1 23 62 54 109 53 167 66 283 63 77
-2 111 -8 149 -25z m-14 -182 c40 -21 58 -48 36 -56 -7 -3 -28 4 -47 15 -53
30 -110 35 -176 16 -76 -22 -251 -109 -228 -113 9 -2 45 10 79 27 35 17 92 38
128 48 62 16 68 16 131 -1 69 -19 193 -88 211 -119 17 -28 -24 -57 -79 -57
-24 0 -72 -7 -107 -16 -111 -29 -236 -8 -305 50 -26 22 -41 26 -119 28 l-89 3
95 59 c221 138 360 172 470 116z m985 -9 c69 -26 261 -134 289 -162 6 -5 -23
-9 -77 -9 -83 0 -89 -1 -131 -34 -72 -55 -187 -70 -299 -41 -32 8 -75 15 -95
15 -72 0 -100 19 -85 56 10 27 123 93 197 116 62 19 77 20 125 10 31 -7 89
-28 129 -47 41 -19 84 -35 96 -35 33 1 -106 74 -198 105 -89 30 -145 28 -204
-5 -32 -19 -66 -17 -59 4 5 15 62 47 100 57 52 13 128 3 212 -30z m-1264 -277
c69 -34 130 -40 209 -19 86 23 94 23 98 3 5 -25 -87 -52 -183 -53 -72 0 -86 3
-143 34 -50 27 -60 37 -51 47 15 18 11 18 70 -12z m1347 14 c13 -13 -25 -43
-88 -69 -80 -32 -296 -3 -288 39 4 20 12 20 98 -3 79 -21 141 -15 207 19 57
30 56 29 71 14z m-898 -97 c15 -53 12 -115 -6 -161 -17 -42 -23 -47 -41 -29
-8 8 -7 20 3 45 18 44 18 108 -2 145 -12 24 -13 34 -3 45 16 20 36 2 49 -45z
m426 1 c-20 -38 -21 -102 -3 -145 15 -35 12 -57 -6 -57 -36 0 -59 126 -37 196
18 56 30 69 48 51 12 -13 12 -19 -2 -45z m-316 -819 c45 -23 129 -16 187 16
45 25 54 27 65 14 13 -16 13 -15 -43 -50 l-26 -16 38 -34 c43 -39 47 -50 23
-60 -9 -3 -21 2 -29 14 -37 53 -153 70 -225 33 -21 -11 -43 -27 -48 -36 -10
-17 -42 -13 -42 5 0 5 17 24 39 44 l38 34 -26 16 c-57 35 -56 34 -41 51 12 15
15 15 39 -1 14 -9 37 -23 51 -30z"/>
<path d="M1286 864 c-3 -9 -9 -39 -12 -67 -4 -39 -2 -57 10 -72 l16 -20 16 20
c12 15 14 33 10 72 -9 79 -25 106 -40 67z"/>
<path d="M1195 685 l-30 -25 36 6 c24 4 47 1 67 -10 30 -15 34 -15 63 0 18 9
45 14 60 12 35 -5 36 -2 7 23 -29 23 -34 23 -58 -1 -11 -11 -29 -20 -40 -20
-11 0 -29 9 -40 20 -25 25 -28 25 -65 -5z"/>
<path d="M745 1631 c-16 -4 -58 -20 -92 -36 l-63 -28 26 -19 25 -20 32 37 c38
43 89 58 145 43 41 -11 78 -41 88 -70 9 -28 24 -11 24 27 0 30 -5 37 -35 49
-45 19 -112 27 -150 17z"/>
<path d="M710 1545 c-13 -14 -20 -28 -16 -32 10 -10 162 -10 172 0 4 4 -3 18
-16 32 -33 36 -107 36 -140 0z"/>
<path d="M970 1550 c0 -16 7 -20 33 -20 l32 0 -25 20 c-32 25 -40 25 -40 0z"/>
<path d="M1770 1634 c-105 -37 -100 -33 -100 -75 0 -41 14 -53 24 -21 10 31
52 63 93 72 53 13 105 -4 140 -43 25 -28 33 -32 51 -24 34 16 27 26 -40 57
-62 28 -139 44 -168 34z"/>
<path d="M1590 1550 l-25 -20 33 0 c25 0 32 4 32 20 0 25 -8 25 -40 0z"/>
<path d="M1753 1546 c-15 -13 -24 -28 -20 -33 11 -10 163 -11 173 0 4 4 -3 18
-16 32 -32 34 -97 35 -137 1z"/>
</g>
</svg>
